<mxfile host="65bd71144e">
    <diagram id="MRAWAF_ucW7aSEb8L1Rl" name="ページ1">
        <mxGraphModel dx="997" dy="717" grid="1" gridSize="10" guides="1" tooltips="1" connect="1" arrows="1" fold="1" page="1" pageScale="1" pageWidth="827" pageHeight="1169" math="0" shadow="0">
            <root>
                <mxCell id="0"/>
                <mxCell id="1" parent="0"/>
                <mxCell id="12" style="edgeStyle=none;html=1;entryX=0;entryY=0.5;entryDx=0;entryDy=0;" parent="1" source="2" target="3" edge="1">
                    <mxGeometry relative="1" as="geometry"/>
                </mxCell>
                <mxCell id="2" value="" style="rounded=1;whiteSpace=wrap;html=1;strokeWidth=2;fillWeight=4;hachureGap=8;hachureAngle=45;fillColor=#FF00FF;sketch=1;" parent="1" vertex="1">
                    <mxGeometry x="40" y="90" width="120" height="60" as="geometry"/>
                </mxCell>
                <mxCell id="13" style="edgeStyle=none;html=1;exitX=1;exitY=0.5;exitDx=0;exitDy=0;entryX=0;entryY=0.5;entryDx=0;entryDy=0;" parent="1" source="3" target="5" edge="1">
                    <mxGeometry relative="1" as="geometry"/>
                </mxCell>
                <mxCell id="3" value="" style="rounded=1;whiteSpace=wrap;html=1;strokeWidth=2;fillWeight=4;hachureGap=8;hachureAngle=45;fillColor=#66FFFF;sketch=1;" parent="1" vertex="1">
                    <mxGeometry x="200" y="90" width="90" height="60" as="geometry"/>
                </mxCell>
                <mxCell id="14" style="edgeStyle=none;html=1;exitX=1;exitY=0.5;exitDx=0;exitDy=0;entryX=0;entryY=0.5;entryDx=0;entryDy=0;" parent="1" source="5" target="6" edge="1">
                    <mxGeometry relative="1" as="geometry"/>
                </mxCell>
                <mxCell id="5" value="" style="rounded=1;whiteSpace=wrap;html=1;strokeWidth=2;fillWeight=4;hachureGap=8;hachureAngle=45;fillColor=#66FFFF;sketch=1;" parent="1" vertex="1">
                    <mxGeometry x="320" y="90" width="90" height="60" as="geometry"/>
                </mxCell>
                <mxCell id="15" style="edgeStyle=none;html=1;exitX=1;exitY=0.5;exitDx=0;exitDy=0;entryX=0;entryY=0.5;entryDx=0;entryDy=0;strokeWidth=3;strokeColor=#FF6666;" parent="1" source="6" target="11" edge="1">
                    <mxGeometry relative="1" as="geometry"/>
                </mxCell>
                <mxCell id="6" value="" style="rounded=1;whiteSpace=wrap;html=1;strokeWidth=2;fillWeight=4;hachureGap=8;hachureAngle=45;fillColor=#6666FF;sketch=1;" parent="1" vertex="1">
                    <mxGeometry x="440" y="90" width="90" height="60" as="geometry"/>
                </mxCell>
                <mxCell id="11" value="" style="rhombus;whiteSpace=wrap;html=1;strokeWidth=2;fillWeight=-1;hachureGap=8;fillStyle=cross-hatch;fillColor=#CC0000;sketch=1;" parent="1" vertex="1">
                    <mxGeometry x="560" y="80" width="150" height="80" as="geometry"/>
                </mxCell>
                <mxCell id="16" value="Ruby script" style="text;strokeColor=none;fillColor=none;html=1;fontSize=24;fontStyle=1;verticalAlign=middle;align=center;fontFamily=Comic Sans MS;" parent="1" vertex="1">
                    <mxGeometry x="60" y="40" width="100" height="40" as="geometry"/>
                </mxCell>
                <mxCell id="17" value="tokens" style="text;strokeColor=none;fillColor=none;html=1;fontSize=24;fontStyle=1;verticalAlign=middle;align=center;fontFamily=Comic Sans MS;" parent="1" vertex="1">
                    <mxGeometry x="195" y="40" width="100" height="40" as="geometry"/>
                </mxCell>
                <mxCell id="18" value="AST" style="text;strokeColor=none;fillColor=none;html=1;fontSize=24;fontStyle=1;verticalAlign=middle;align=center;fontFamily=Comic Sans MS;" parent="1" vertex="1">
                    <mxGeometry x="310" y="40" width="100" height="40" as="geometry"/>
                </mxCell>
                <mxCell id="19" value="CRuby&lt;br&gt;Bytecode" style="text;strokeColor=none;fillColor=none;html=1;fontSize=24;fontStyle=1;verticalAlign=middle;align=center;fontFamily=Comic Sans MS;" parent="1" vertex="1">
                    <mxGeometry x="435" y="40" width="100" height="40" as="geometry"/>
                </mxCell>
                <mxCell id="20" value="YARV" style="text;strokeColor=none;fillColor=none;html=1;fontSize=24;fontStyle=1;verticalAlign=middle;align=center;fontFamily=Comic Sans MS;" parent="1" vertex="1">
                    <mxGeometry x="580" y="40" width="105" height="40" as="geometry"/>
                </mxCell>
                <mxCell id="21" value="" style="shape=callout;whiteSpace=wrap;html=1;perimeter=calloutPerimeter;fillColor=none;position2=0.33;rotation=-180;" parent="1" vertex="1">
                    <mxGeometry x="110" y="150" width="100" height="70" as="geometry"/>
                </mxCell>
                <mxCell id="22" value="&lt;font style=&quot;font-size: 20px;&quot;&gt;Lexer&lt;/font&gt;" style="text;strokeColor=none;fillColor=none;html=1;fontSize=24;fontStyle=1;verticalAlign=middle;align=center;fontFamily=Comic Sans MS;" parent="1" vertex="1">
                    <mxGeometry x="110" y="180" width="100" height="40" as="geometry"/>
                </mxCell>
                <mxCell id="23" value="" style="shape=callout;whiteSpace=wrap;html=1;perimeter=calloutPerimeter;fillColor=none;position2=0.33;rotation=-180;" parent="1" vertex="1">
                    <mxGeometry x="240" y="150" width="100" height="70" as="geometry"/>
                </mxCell>
                <mxCell id="24" value="&lt;font style=&quot;font-size: 20px;&quot;&gt;Parser&lt;/font&gt;" style="text;strokeColor=none;fillColor=none;html=1;fontSize=24;fontStyle=1;verticalAlign=middle;align=center;fontFamily=Comic Sans MS;" parent="1" vertex="1">
                    <mxGeometry x="240" y="180" width="100" height="40" as="geometry"/>
                </mxCell>
                <mxCell id="25" value="" style="shape=callout;whiteSpace=wrap;html=1;perimeter=calloutPerimeter;fillColor=none;position2=0.33;rotation=-180;" parent="1" vertex="1">
                    <mxGeometry x="360" y="150" width="100" height="70" as="geometry"/>
                </mxCell>
                <mxCell id="26" value="&lt;font style=&quot;font-size: 20px;&quot;&gt;Compiler&lt;/font&gt;" style="text;strokeColor=none;fillColor=none;html=1;fontSize=24;fontStyle=1;verticalAlign=middle;align=center;fontFamily=Comic Sans MS;" parent="1" vertex="1">
                    <mxGeometry x="360" y="180" width="100" height="40" as="geometry"/>
                </mxCell>
            </root>
        </mxGraphModel>
    </diagram>
</mxfile>